<svg xmlns="http://www.w3.org/2000/svg" xmlns:xlink="http://www.w3.org/1999/xlink" version="1.1" style="" xml:space="preserve" width="50" height="50"><rect id="backgroundrect" width="100%" height="100%" x="0" y="0" fill="none" stroke="none" class="" style=""/>
<style type="text/css">
	.st0{fill:#231F20;}
</style>

<g class="currentLayer" style=""><title>Layer 1</title><path d="M11.359999294281003,24.42499927520752 c0.28,0 0.5,0.22000000000000008 0.5,0.5 v8.6 h7.11 v-8.6 c0,-0.28 0.22000000000000008,-0.5 0.5,-0.5 h3.85 l-7.91,-7.94 l-7.9,7.94 H11.359999294281003 zM6.309999294281006,25.42499927520752 c-0.44000000000000017,0 -0.6700000000000006,-0.54 -0.35000000000000014,-0.8500000000000003 l9.1,-9.15 c0.2,-0.2 0.51,-0.2 0.7100000000000003,0 l9.11,9.15 c0.31000000000000016,0.3200000000000002 0.09000000000000007,0.8500000000000003 -0.35000000000000014,0.8500000000000003 h-4.5600000000000005 v8.6 c0,0.28 -0.22000000000000008,0.5 -0.5,0.5 h-8.11 c-0.28,0 -0.5,-0.22000000000000008 -0.5,-0.5 v-8.6 H6.309999294281006 zM25.029999294281005,34.76499927520752 c0,-0.28 0.22000000000000008,-0.5 0.5,-0.5 c0.28,0 0.5,0.22000000000000008 0.5,0.5 v3.05 c0,0.28 -0.22000000000000008,0.5 -0.5,0.5 H5.309999294281006 c-0.28,0 -0.5,-0.22000000000000008 -0.5,-0.5 v-3.05 c0,-0.28 0.22000000000000008,-0.5 0.5,-0.5 s0.5,0.22000000000000008 0.5,0.5 v2.55 h19.22 V34.76499927520752 zM41.35999929428101,12.364999275207516 c0.28,0 0.5,0.22000000000000008 0.5,0.5 c0,0.28 -0.22000000000000008,0.5 -0.5,0.5 h-6.06 c-0.28,0 -0.5,-0.22000000000000008 -0.5,-0.5 v-6.1 c0,-0.28 0.22000000000000008,-0.5 0.5,-0.5 c0.28,0 0.5,0.22000000000000008 0.5,0.5 v5.6 H41.35999929428101 zM36.359999294281,4.2649992752075185 H14.309999294281006 c-0.8300000000000003,0 -1.5,0.6700000000000006 -1.5,1.5 v7.08 c0,0.28 -0.22000000000000008,0.5 -0.5,0.5 s-0.5,-0.22000000000000008 -0.5,-0.5 l0,-7.09 c0.010000000000000005,-1.3800000000000001 1.12,-2.49 2.5,-2.5 h22.26 c0.13,0 0.26,0.05000000000000003 0.35000000000000014,0.15000000000000008 l8.12,8.08 c0.09000000000000007,0.09000000000000007 0.15000000000000008,0.22000000000000008 0.15000000000000008,0.35000000000000014 l0,32.41 c0,1.3800000000000001 -1.12,2.49 -2.5,2.5 H14.32999929428101 c-1.3800000000000001,0 -2.49,-1.12 -2.5,-2.5 v-3.05 c0,-0.28 0.22000000000000008,-0.5 0.5,-0.5 s0.5,0.22000000000000008 0.5,0.5 l0,3.05 c0,0.8300000000000003 0.6700000000000006,1.5 1.5,1.5 l28.36,0 c0.8300000000000003,0 1.5,-0.6700000000000006 1.5,-1.5 v-32.2 L36.359999294281,4.2649992752075185 z" id="svg_1" class="" fill-opacity="1" fill="#00aaff"/></g></svg>