<svg width="70" height="70" xmlns="http://www.w3.org/2000/svg">
 <style type="text/css">.st0{fill:#231F20;}</style>

 <g>
  <title>background</title>
  <rect fill="none" id="canvas_background" height="72" width="72" y="-1" x="-1"/>
 </g>
 <g>
  <title>Layer 1</title>
  <g id="svg_1">
   <path fill="#00aaff" id="svg_2" d="m16.355,17.175l-6.37,-3.71c-0.24,-0.14 -0.54,-0.06 -0.68,0.18c-0.14,0.24 -0.06,0.54 0.18,0.68l6.37,3.71c0.24,0.14 0.54,0.06 0.68,-0.18c0.14,-0.23 0.06,-0.54 -0.18,-0.68z"/>
   <path fill="#00aaff" id="svg_3" d="m34.445,10.335c0.28,0 0.5,-0.22 0.5,-0.5l0,-7.42c0,-0.28 -0.22,-0.5 -0.5,-0.5s-0.5,0.22 -0.5,0.5l0,7.42c0,0.28 0.22,0.5 0.5,0.5z"/>
   <path fill="#00aaff" id="svg_4" d="m34.015,21.355c-6.94,0 -12.56,5.67 -12.56,12.65c0,0.28 0.22,0.5 0.5,0.5c0.28,0 0.5,-0.22 0.5,-0.5c0,-6.44 5.18,-11.65 11.56,-11.65c0.28,0 0.5,-0.22 0.5,-0.5c0,-0.27 -0.22,-0.5 -0.5,-0.5z"/>
   <path fill="#00aaff" id="svg_5" d="m60.695,13.655c-0.14,-0.24 -0.44,-0.32 -0.68,-0.18l-6.37,3.71c-0.24,0.14 -0.32,0.44 -0.18,0.68s0.44,0.32 0.68,0.18l6.37,-3.71c0.24,-0.14 0.32,-0.44 0.18,-0.68z"/>
   <path fill="#00aaff" id="svg_6" d="m34.715,15.275c-4.53,0.06 -8.82,1.88 -12.09,5.1c-3.27,3.23 -5.15,7.51 -5.3,12.07c-0.17,5.28 1.98,10.34 5.9,13.86c0.43,0.39 0.68,0.92 0.68,1.47l0,4.56c0,1.52 1.18,2.74 2.68,2.81c0.07,0.03 0.14,0.05 0.21,0.05l0.05,0l0,8.04c0,1.53 1.18,2.7 2.72,2.7l0.76,0.01c0,1.09 0.81,2.14 1.85,2.14l5.59,0c1.05,0 2.12,-1.09 2.12,-2.16l0.65,0c1.55,0 2.83,-1.18 2.83,-2.7l0,-8.11c1.37,-0.2 2.41,-1.37 2.41,-2.79l0,-4.32c0,-0.56 0.25,-1.11 0.7,-1.49c3.91,-3.38 6.15,-8.3 6.15,-13.48c-0.01,-9.89 -8.07,-17.91 -17.91,-17.76zm7.64,39.92l0,2.69l-14.51,0l0,-2.69l14.51,0zm-14.51,3.69l14.51,0l0,2.69l-14.51,0l0,-2.69zm12.68,6.05l-1.15,0c-0.28,0 -0.5,0.22 -0.5,0.5l0,0.51c0,0.51 -0.62,1.14 -1.12,1.14l-5.59,0c-0.42,0 -0.85,-0.56 -0.85,-1.14l0,-0.51c0,-0.28 -0.22,-0.5 -0.5,-0.5l-1.26,0c-0.99,0 -1.72,-0.72 -1.72,-1.7l0,-0.67l14.51,0l0,0.67c0.01,0.95 -0.8,1.7 -1.82,1.7zm5.28,-19.16c-0.66,0.57 -1.04,1.39 -1.04,2.25l0,4.32c0,1.01 -0.81,1.82 -1.91,1.82c-0.07,0 -0.13,0.01 -0.19,0.04l-15.13,0c-0.06,-0.02 -0.12,-0.04 -0.19,-0.04l-0.62,0c-1.01,0 -1.82,-0.8 -1.82,-1.82l0,-4.56c0,-0.83 -0.37,-1.64 -1.01,-2.21c-3.7,-3.33 -5.73,-8.1 -5.57,-13.09c0.14,-4.3 1.92,-8.35 5,-11.39c3.08,-3.05 7.13,-4.75 11.4,-4.81c9.29,-0.15 16.89,7.42 16.89,16.76c0,4.9 -2.12,9.54 -5.81,12.73z"/>
  </g>
 </g>
</svg>