<svg width="54.00000000000001" height="54.00000000000001" xmlns="http://www.w3.org/2000/svg">
 <style type="text/css">.st0{fill:#231F20;}</style>

 <g>
  <title>background</title>
  <rect fill="none" id="canvas_background" height="56" width="56" y="-1" x="-1"/>
 </g>
 <g>
  <title>Layer 1</title>
  <path fill="#00aaff" id="svg_1" d="m51,41.365c0,1.46 -1.18,2.64 -2.64,2.64l-42.72,0c-1.46,0 -2.64,-1.18 -2.64,-2.64l0,-28.73c0,-1.46 1.18,-2.64 2.64,-2.64l42.71,0c1.46,0 2.64,1.18 2.64,2.64l0,28.73l0.01,0zm-1,0.01l0,-28.75c0,-0.9 -0.73,-1.62 -1.63,-1.62l-42.75,0c-0.9,0 -1.63,0.73 -1.63,1.62l0,28.76c0,0.9 0.73,1.62 1.63,1.62l42.74,0c0.91,0 1.64,-0.73 1.64,-1.63zm-2.16,-1.26c0.2,0.2 0.2,0.53 0,0.73c-0.2,0.2 -0.53,0.2 -0.73,0l-11.96,-11.96c-0.2,-0.2 -0.2,-0.53 0,-0.73c0.2,-0.2 0.53,-0.2 0.73,0l11.96,11.96zm-41.96,0.73c-0.2,0.2 -0.53,0.2 -0.73,0c-0.2,-0.2 -0.2,-0.53 0,-0.73l11.96,-11.96c0.2,-0.2 0.53,-0.2 0.73,0c0.2,0.2 0.2,0.53 0,0.73l-11.96,11.96zm40.24,-27.7c0.2,-0.2 0.53,-0.2 0.73,0c0.2,0.2 0.2,0.52 0,0.71l-15.15,14.84c-3.15,3.08 -8.25,3.08 -11.4,0l-15.15,-14.83c-0.2,-0.2 -0.2,-0.52 0,-0.71c0.2,-0.2 0.53,-0.2 0.73,0l15.15,14.83c2.75,2.69 7.2,2.69 9.95,0l15.14,-14.84z"/>
 </g>
</svg>