<svg width="50" height="50" xmlns="http://www.w3.org/2000/svg">
 <style type="text/css">.st0{fill:#231F20;}</style>

 <g>
  <title>background</title>
  <rect fill="none" id="canvas_background" height="52" width="52" y="-1" x="-1"/>
 </g>
 <g>
  <title>Layer 1</title>
  <path fill="#00aaff" id="svg_1" d="m6.7,3.195c2.24,0 4.05,1.81 4.05,4.05c0,2.24 -1.81,4.05 -4.05,4.05s-4.05,-1.81 -4.05,-4.05c0,-2.24 1.81,-4.05 4.05,-4.05zm0,1c-1.69,0 -3.05,1.37 -3.05,3.05c0,1.68 1.37,3.05 3.05,3.05c1.69,0 3.05,-1.37 3.05,-3.05c0,-1.68 -1.37,-3.05 -3.05,-3.05zm9.46,39.01c-0.28,0 -0.5,-0.22 -0.5,-0.5s0.22,-0.5 0.5,-0.5l30.69,0c0.28,0 0.5,0.22 0.5,0.5s-0.22,0.5 -0.5,0.5l-30.69,0zm-9.46,-4.5c2.24,0 4.05,1.81 4.05,4.05c0,2.24 -1.81,4.05 -4.05,4.05s-4.05,-1.81 -4.05,-4.05c0,-2.24 1.81,-4.05 4.05,-4.05zm0,1c-1.69,0 -3.05,1.37 -3.05,3.05c0,1.68 1.37,3.05 3.05,3.05c1.69,0 3.05,-1.37 3.05,-3.05c0,-1.69 -1.37,-3.05 -3.05,-3.05zm9.46,-8.51c-0.28,0 -0.5,-0.22 -0.5,-0.5c0,-0.28 0.22,-0.5 0.5,-0.5l30.69,0c0.28,0 0.5,0.22 0.5,0.5c0,0.28 -0.22,0.5 -0.5,0.5l-30.69,0zm-9.46,-4.5c2.24,0 4.05,1.81 4.05,4.05c0,2.24 -1.81,4.05 -4.05,4.05s-4.05,-1.81 -4.05,-4.05c0,-2.23 1.81,-4.05 4.05,-4.05zm0,1c-1.69,0 -3.05,1.37 -3.05,3.05c0,1.68 1.37,3.05 3.05,3.05c1.69,0 3.05,-1.37 3.05,-3.05c0,-1.68 -1.37,-3.05 -3.05,-3.05zm9.46,-8c-0.28,0 -0.5,-0.22 -0.5,-0.5c0,-0.28 0.22,-0.5 0.5,-0.5l30.69,0c0.28,0 0.5,0.22 0.5,0.5c0,0.28 -0.22,0.5 -0.5,0.5l-30.69,0zm-9.46,-4.5c2.24,0 4.05,1.81 4.05,4.05c0,2.24 -1.81,4.05 -4.05,4.05s-4.05,-1.81 -4.05,-4.05c0,-2.23 1.81,-4.05 4.05,-4.05zm0,1c-1.69,0 -3.05,1.37 -3.05,3.05c0,1.68 1.37,3.05 3.05,3.05c1.69,0 3.05,-1.37 3.05,-3.05c0,-1.68 -1.37,-3.05 -3.05,-3.05zm9.46,-8.5c-0.28,0 -0.5,-0.22 -0.5,-0.5c0,-0.28 0.22,-0.5 0.5,-0.5l30.69,0c0.28,0 0.5,0.22 0.5,0.5c0,0.28 -0.22,0.5 -0.5,0.5l-30.69,0z"/>
 </g>
</svg>