<svg width="50" height="50" xmlns="http://www.w3.org/2000/svg">
 <style type="text/css">.st0{fill:#231F20;}</style>

 <g>
  <title>background</title>
  <rect fill="none" id="canvas_background" height="52" width="52" y="-1" x="-1"/>
 </g>
 <g>
  <title>Layer 1</title>
  <g id="svg_1">
   <path fill="#00aaff" id="svg_2" d="m31.93534,35.12l-2.91,0c-0.28,0 -0.5,0.22 -0.5,0.5s0.22,0.5 0.5,0.5l2.91,0c0.28,0 0.5,-0.22 0.5,-0.5s-0.22,-0.5 -0.5,-0.5z"/>
   <path fill="#00aaff" id="svg_3" d="m45.59534,21.92l-0.13,-0.13c-0.01,-0.01 -0.02,-0.02 -0.04,-0.03c-0.31,-0.28 -0.68,-0.45 -1.06,-0.54l1.53,-1.72c0.88,-1.1 0.73,-2.66 -0.31,-3.57l-0.13,-0.13c-0.02,-0.02 -0.02,-0.02 -0.02,-0.02c0,0 0,0 -0.02,-0.02c-0.42,-0.38 -0.94,-0.57 -1.47,-0.61l1.26,-1.22c1.05,-1.05 1.05,-2.74 0.01,-3.78l-0.16,-0.16c-0.79,-0.87 -2.04,-1.08 -3.07,-0.61l0,-3.84c0,-1.88 -1.52,-3.41 -3.4,-3.41l-16.65,0c-1.88,0 -3.41,1.51 -3.41,3.39l0,2.1c0,0 0,0 0,0s0,0 0,0l0,6.52c-0.39,0.04 -0.76,0.18 -1.1,0.43c-0.31,0.23 -0.54,0.54 -0.69,0.89c-0.47,1.49 -1.77,5.81 -2.04,6.65c-0.08,0.25 -0.16,0.49 -0.24,0.73c-0.19,0.57 -0.4,1.12 -0.64,1.74c-0.32,0.82 -0.52,1.77 -0.63,2.87c-0.09,0.83 -0.11,1.43 -0.14,2.88c-0.03,1.46 -0.08,2.03 -0.22,2.33c-0.02,0.05 -0.46,0.74 -1.09,1.72c-0.25,0.39 -0.51,0.8 -0.78,1.21c-0.06,0.09 -0.1,0.16 -0.15,0.23l-1.56,-1.56c-0.2,-0.2 -0.51,-0.2 -0.71,0l-4.87,4.93c-0.19,0.2 -0.19,0.51 0,0.7l7.79,7.83c0.19,0.2 0.51,0.2 0.71,0c0.2,-0.19 0.2,-0.51 0,-0.71l-7.44,-7.48l4.17,-4.22l12.36,12.4c0.19,0.2 0.51,0.2 0.71,0c0.17,-0.17 0.18,-0.43 0.05,-0.63c0.35,-0.36 0.71,-0.72 1.04,-1.05c0.04,-0.04 0.04,-0.04 0.07,-0.07c0.38,-0.38 0.72,-0.71 0.99,-0.97c4.01,0.24 7.1,-0.95 9.48,-3.13c0.62,-0.57 1.15,-1.16 1.66,-1.82c0.2,-0.26 0.65,-0.88 0.79,-1.07l2.67,0c1.88,0 3.41,-1.51 3.41,-3.39l0,-0.02l0,-1.51c0.66,0.16 1.29,0.07 1.7,-0.37l1.97,-2.27c0.88,-1.07 0.73,-2.63 -0.32,-3.52l-0.13,-0.13c-0.05,-0.04 -0.05,-0.04 -0.08,-0.07c-0.28,-0.24 -0.6,-0.4 -0.93,-0.49l1.55,-1.74c0.9,-1.08 0.75,-2.64 -0.29,-3.54zm-0.82,-5.42c0,0 0,0 0.02,0.02l0.12,0.13c0.66,0.58 0.75,1.53 0.22,2.19l-1.99,2.23c-0.29,0.29 -1.05,0.18 -1.72,-0.4l-0.15,-0.15c-0.69,-0.61 -0.92,-1.37 -0.67,-1.65l2.01,-2.25c0.57,-0.62 1.53,-0.67 2.16,-0.12zm-2.79,-5.96c0.68,-0.6 1.73,-0.55 2.35,0.13l0.17,0.17c0.65,0.65 0.65,1.71 0,2.36l-2.33,2.24c-0.32,0.26 -1.15,0.05 -1.84,-0.68l-0.16,-0.16c-0.66,-0.7 -0.83,-1.56 -0.55,-1.82l2.36,-2.24zm-22.46,-5.02c0,-1.33 1.08,-2.4 2.41,-2.4l16.67,0c1.33,0 2.4,1.08 2.4,2.41l0,1.59l-21.48,0l0,-1.6zm0,2.6l21.48,0l0,1.98l-2.04,1.96c-0.78,0.71 -0.48,2.18 0.52,3.25l0.16,0.16c0.52,0.55 1.16,0.91 1.76,1.02l-1.53,1.71c-0.7,0.79 -0.3,2.13 0.73,3.04l0.14,0.14l0.02,0.02c0.33,0.29 0.69,0.49 1.05,0.63l-1.95,2.19c-0.7,0.79 -0.3,2.13 0.73,3.04l0.14,0.14l0.02,0.02c0.31,0.28 0.66,0.48 1.01,0.61l-1.9,2.19c-0.46,0.48 -0.44,1.2 -0.09,1.9l-16.75,0c-0.03,0 -0.06,0.01 -0.09,0.02c-0.4,-2.27 -1.25,-4.32 -2.44,-5.87c0.71,-2.22 1.17,-4.52 1.37,-6.85c0.1,-1.6 -0.39,-3.18 -1.37,-4.43c-0.26,-0.34 -0.6,-0.58 -0.98,-0.72l0,-6.15l0.01,0zm14.94,31.33c-0.47,0.62 -0.97,1.17 -1.54,1.69c-2.23,2.04 -5.13,3.14 -8.96,2.86l-0.22,-0.02l-0.16,0.15c-0.3,0.28 -0.7,0.67 -1.16,1.14c-0.04,0.04 -0.04,0.04 -0.07,0.07c-0.33,0.33 -0.68,0.68 -1.03,1.04l-9.8,-9.83c0.07,-0.11 0.16,-0.24 0.27,-0.42c0.26,-0.41 0.53,-0.83 0.79,-1.23c0.7,-1.09 1.08,-1.7 1.14,-1.81c0.23,-0.5 0.28,-1.08 0.31,-2.73c0.03,-1.41 0.06,-2.01 0.14,-2.79c0.11,-1.02 0.29,-1.89 0.57,-2.62c0.24,-0.63 0.45,-1.2 0.65,-1.78c0.08,-0.24 0.16,-0.49 0.25,-0.74c0.28,-0.85 1.58,-5.18 2.03,-6.62c0.06,-0.15 0.19,-0.31 0.36,-0.44c0.53,-0.4 1.28,-0.3 1.68,0.23c0.84,1.07 1.25,2.4 1.17,3.75c-0.2,2.33 -0.67,4.64 -1.41,6.87c-0.05,0.16 -0.02,0.34 0.08,0.47c2.45,3.05 3.53,8.4 1.77,13.45c-0.09,0.26 0.05,0.55 0.31,0.64s0.55,-0.05 0.64,-0.31c0.17,-0.48 0.3,-0.97 0.43,-1.46l12.12,0c-0.15,0.16 -0.28,0.34 -0.36,0.44zm6.67,-5.83l0,1.97c0,1.33 -1.08,2.4 -2.41,2.4l-15.82,0c0.3,-1.66 0.35,-3.31 0.17,-4.87l17.47,0c0.02,0.02 0.03,0.04 0.05,0.05l0.14,0.14l0.02,0.02c0.13,0.11 0.25,0.2 0.38,0.29l0,0zm3.49,-5.15c0.02,0.02 0.02,0.02 0.04,0.03l0.15,0.15c0.66,0.56 0.75,1.5 0.23,2.14l-1.95,2.24c-0.24,0.26 -1,0.13 -1.66,-0.44l-0.15,-0.15c-0.69,-0.61 -0.91,-1.31 -0.68,-1.55l1.97,-2.26c0.53,-0.61 1.44,-0.68 2.05,-0.16zm0.52,-3.63l-1.99,2.23c-0.29,0.3 -1.05,0.19 -1.72,-0.39l-0.15,-0.15c-0.69,-0.61 -0.92,-1.37 -0.67,-1.65l2.01,-2.25c0.56,-0.63 1.52,-0.69 2.15,-0.13c-0.01,-0.01 -0.01,-0.01 0.01,0.01l0.12,0.13c0.67,0.58 0.76,1.54 0.24,2.2z"/>
  </g>
 </g>
</svg>