<svg width="48" height="48" xmlns="http://www.w3.org/2000/svg">

 <g>
  <title>background</title>
  <rect fill="none" id="canvas_background" height="50" width="50" y="-1" x="-1"/>
 </g>
 <g>
  <title>Layer 1</title>
  <g id="svg_1">
   <path fill="#00aaff" id="svg_2" d="m23.99358,18.56054l2.9,-2.9c0.2,-0.2 0.2,-0.4 0.1,-0.6c-1.6,-3.4 -1.4,-6.4 0.9,-8.8l1.4,-1.4c2,-2 5.2,-2.3 8.1,-1.2l-4.7,4.7c-0.2,0.2 -0.2,0.5 0,0.7l4.2,4.2c0.2,0.2 0.5,0.2 0.7,0l4.7,-4.7c1.1,2.9 0.8,6.2 -1.2,8.1c-0.3,0.3 -0.3,0.3 -0.7,0.7c-0.5,0.4 -0.5,0.4 -0.7,0.7c-2.4,2.4 -5.3,2.6 -8.8,0.9c-0.2,-0.1 -0.4,0 -0.6,0.1l-2.6,2.7c-0.2,0.2 -0.2,0.5 0,0.7c0.2,0.2 0.5,0.2 0.7,0l2.4,-2.4c3.7,1.6 7,1.3 9.6,-1.3c0.3,-0.3 0.3,-0.3 0.7,-0.7c0.4,-0.4 0.4,-0.4 0.7,-0.7c2.4,-2.4 2.8,-6.5 1.1,-9.9c-0.2,-0.3 -0.6,-0.4 -0.8,-0.1l-4.8,4.8l-3.5,-3.4l4.8,-4.8c0.2,-0.2 0.2,-0.7 -0.1,-0.8c-3.4,-1.6 -7.5,-1.3 -9.9,1.1l-1.4,1.4c-2.6,2.6 -2.9,5.9 -1.3,9.6l-2.7,2.7c-0.2,0.2 -0.2,0.5 0,0.7c0.2,0.1 0.5,0.1 0.8,-0.1z"/>
   <path fill="#00aaff" id="svg_3" d="m21.99358,28.26054l-14.6,14.5c-1,1 -2.5,1 -3.5,0c-0.1,-0.1 -0.3,-0.2 -0.5,-0.1c-0.5,-0.9 -0.4,-2.1 0.4,-2.9l14.8,-14.8c0.2,-0.2 0.2,-0.5 0,-0.7s-0.5,-0.2 -0.7,0l-14.8,14.7c-1.4,1.3 -1.4,3.5 0,4.9c0.2,0.2 0.5,0.2 0.7,0c1.3,0.9 3.2,0.7 4.3,-0.4l14.6,-14.5c0.2,-0.2 0.2,-0.5 0,-0.7c-0.2,-0.2 -0.5,-0.2 -0.7,0z"/>
   <path fill="#00aaff" id="svg_4" d="m7.29358,38.26054l-2.1,2.1c-0.2,0.2 -0.2,0.5 0,0.7c0.2,0.2 0.5,0.2 0.7,0l2.1,-2.1c0.2,-0.2 0.2,-0.5 0,-0.7c-0.2,-0.2 -0.5,-0.2 -0.7,0z"/>
   <path fill="#00aaff" id="svg_5" d="m44.99358,38.66054c-5.5,-5.5 -8.2,-8.2 -8.2,-8.2c0,-0.2 0,-0.2 -0.1,-0.4c-0.1,-0.3 -0.1,-0.7 -0.2,-1.2c-0.1,-0.4 -0.1,-0.7 -0.2,-1.2c-0.1,-0.4 -0.1,-0.4 -0.1,-0.5c0,-0.2 -0.2,-0.3 -0.3,-0.4c-0.1,0 -0.1,0 -0.3,-0.1c-0.2,-0.1 -0.5,-0.2 -0.7,-0.2c-0.3,-0.1 -0.5,-0.2 -0.7,-0.2c-0.1,0 -0.2,-0.1 -0.2,-0.1c0,0 0,0 -0.1,0c0,0 0,0 -0.5,0.1l-1.7,1.7l-15.9,-15.6l-0.7,-3.3c0,-0.1 -0.1,-0.2 -0.2,-0.3l-8.3,-5.5c-0.2,-0.1 -0.5,-0.1 -0.6,0.1l-2.8,2.8c-0.2,0.2 -0.2,0.4 -0.1,0.6l5.6,8.3c0.1,0.1 0.2,0.2 0.3,0.2l3.3,0.7l15.6,15.6l-1.7,1.7c-0.2,0.5 -0.2,0.5 -0.1,0.5c0,0 0,0 0,0.1c0,0.1 0,0.1 0.1,0.2c0.1,0.2 0.1,0.4 0.2,0.7c0.1,0.2 0.2,0.5 0.2,0.7c0.1,0.2 0.1,0.2 0.1,0.3c0.1,0.2 0.2,0.3 0.4,0.3c0.1,0 0.1,0 0.5,0.1c0.5,0.1 0.8,0.2 1.2,0.2c0.5,0.1 0.9,0.2 1.2,0.2c0.2,0 0.2,0 0.4,0.1l8.2,8.2c1.3,1.3 3.5,1.3 4.9,0l1.4,-1.4c1.4,-1.2 1.4,-3.4 0.1,-4.8zm-32,-23.7c-0.1,-0.1 -0.2,-0.1 -0.3,-0.1l-3.3,-0.7l-5.2,-7.8l2.2,-2.2l7.8,5.2l0.6,3.3c0,0.1 0.1,0.2 0.1,0.3l15.7,15.7l-1.9,2.1l-15.7,-15.8zm31.3,27.9l-1.4,1.4c-1,0.9 -2.5,0.9 -3.5,0l-8.3,-8.3c-0.3,-0.2 -0.3,-0.2 -0.4,-0.2c-0.2,0 -0.2,0 -0.4,-0.1c-0.3,-0.1 -0.7,-0.1 -1.2,-0.2c-0.4,-0.1 -0.7,-0.1 -1.2,-0.2c-0.1,0 -0.2,0 -0.3,-0.1c-0.1,-0.2 -0.2,-0.5 -0.2,-0.7c-0.1,-0.3 -0.2,-0.5 -0.2,-0.7c4.4,-4.3 6.5,-6.5 6.5,-6.5c0.2,0.1 0.4,0.1 0.7,0.2c0.2,0.1 0.5,0.2 0.8,0.2c0,0.1 0,0.2 0,0.3c0.1,0.5 0.2,0.8 0.2,1.2c0.1,0.5 0.2,0.9 0.2,1.2c0,0.2 0,0.2 0.1,0.4c0,0.1 0,0.1 0,0.1c0,0 0,0 0.2,0.3l8.3,8.3c1,0.9 1,2.4 0.1,3.4z"/>
   <path fill="#00aaff" id="svg_6" d="m32.99358,32.26054c-0.2,-0.2 -0.5,-0.2 -0.7,0c-0.2,0.2 -0.2,0.5 0,0.7l8.3,8.3c0.2,0.2 0.5,0.2 0.7,0c0.2,-0.2 0.2,-0.5 0,-0.7l-8.3,-8.3z"/>
  </g>
 </g>
</svg>